# xmcd CD database file
#
# Track frame offsets:
#	150
#	14220
#	36405
#
# Disc length: 659 seconds
#
# Revision: 3
# Processed by: cddbd v1.5.2PL0 Copyright (c) Steve Scherf et al.
# Submitted via: CDex 1.51
#
DISCID=25029103
DTITLE=Shakin' Stevens - Yes I do
DYEAR=1999
DGENRE=JPop
TTITLE0=Yes I do
TTITLE1=Yes I do /Extended version
TTITLE2=You shake me up
EXTD=YEAR: 1999
EXTT0=
EXTT1=
EXTT2=
PLAYORDER=
